<svg height=".7in" viewBox="0 0 219 47.5" width="3in" xmlns="http://www.w3.org/2000/svg"><g fill="#fff"><path d="m0 0v47.4h47.4v-47.4zm45.9 45.9h-44.3v-44.3h44.3z"/><path d="m3.2 3.2v41.1h41.1v-41.1zm.7 40.3v-39.5h39.6v39.5z"/><path d="m37.2 14.5h.7v-.5h-5.7l-6.3 8.3-4.3-5.6h-1.6v4.2l4.4 5.9h1l6.8-8.9v12.4c0 1.9-.5 2.4-2 2.5h-.6v.5h8.3v-.5h-.7c-1.5-.1-2-.6-2-2.5v-13.4c0-1.8.5-2.4 2-2.4z"/><path d="m20.4 13.9v.5h-1.3l-.5.2a1.9 1.9 0 0 0 -.7 1.4v11.7c0 .3-.1 1.2-.1 1.2a4.9 4.9 0 0 1 -3.4 4.4 3.9 3.9 0 0 1 -1.5.2h-1a1.6 1.6 0 0 1 -.9-.3 2 2 0 0 1 -1.3-1.7 1.6 1.6 0 0 1 1.6-1.5c1 0 1.2.4 1.9 1.7a.7.7 0 0 0 .6.5h.2a.9.9 0 0 0 .5-.3c.3-.4.3-1 .3-2.7v-12.3c0-1.7-.7-2.4-2.1-2.4h-.7v-.5z"/><path d="m60.6 13.9h4.4v.2h-.4c-.8 0-1 .3-1 1.3v5.6c0 1.8-1 3-2.6 3s-1.6-.4-1.6-1.1a.7.7 0 0 1 .7-.7c.5 0 .7.2 1 .8s.3.4.5.4.4-.4.4-1.7v-6.2c0-.9-.3-1.3-1.1-1.3h-.3z"/><path d="m73.6 21.9c.6 1.4 1 1.8 1.7 1.9h.2v.2h-4.3v-.3h.3c.5 0 .8-.2.8-.5a1.7 1.7 0 0 0 -.3-1l-.5-1.5h-3.7l-.7 1.6c-.1.4-.3.8-.3.9s.4.5 1 .5h.1v.3h-3.4v-.2c1.1-.1 1.2-.2 1.8-1.7l3.7-8.3h.1zm-2.4-1.8-1.6-3.7-1.6 3.7z"/><path d="m84.3 21.8a4.8 4.8 0 0 1 -4.1 2.3 5.2 5.2 0 1 1 .2-10.3 5.1 5.1 0 0 1 2.2.4l.7.3c.3 0 .4-.2.5-.6h.3v3.4h-.3a2.6 2.6 0 0 0 -.9-1.9 3.4 3.4 0 0 0 -2.4-1.1c-2.2 0-3.6 1.9-3.6 4.7s1.4 4.5 3.6 4.5a4.4 4.4 0 0 0 3.5-1.8z"/><path d="m88.3 22.4c0 1 .2 1.3 1.1 1.3h.3v.3h-4.4v-.2h.4c.8 0 1-.3 1-1.3v-7c0-1-.2-1.3-1-1.3h-.4v-.2h4.4v.2h-.3c-.8 0-1.1.3-1.1 1.3v3.2a23.2 23.2 0 0 0 2.7-2.6c.7-.9.9-1.3.9-1.5s-.2-.4-.9-.4v-.3h3.7v.3h-.2c-.9.1-1.2.3-2.2 1.5l-1.6 1.6-.6.7-.4.4 3.5 3.6c1.3 1.3 2 1.7 2.9 1.8v.2h-4.8v-.2h.2c.4 0 .6-.1.6-.4s-.3-.6-1-1.3l-2.8-2.9z"/><path d="m99.7 22.2c0 1 .1 1.2.8 1.1h1.8c1.7 0 2.3-.4 2.9-1.9h.2l-.8 2.5h-7.9v-.2h.3c.8 0 1.1-.3 1.1-1.3v-6.9c0-1-.3-1.3-1.1-1.3h-.3v-.2h7.7l.2 2.3h-.3c-.2-1.4-.7-1.8-2.3-1.7h-2.3v3.8h2.6c.8 0 1.1-.4 1.1-1.5h.3v3.7h-.3c.1-1.1-.3-1.5-1.1-1.5h-2.6z"/><path d="m106.1 24v-.2h.4c.8 0 1-.3 1-1.3v-7c0-1-.2-1.3-1-1.3h-.4v-.2h4.4v.2h-.3c-.8 0-1.1.3-1.1 1.3v6.6c0 1.1 0 1.2 1.3 1.2h1.2a2.8 2.8 0 0 0 2.9-2.1h.3l-.9 2.7z"/><path d="m115.4 13.9h4.4v.2h-.4c-.8 0-1 .3-1 1.3v6.9c0 1 .2 1.3 1 1.3h.4v.4h-4.4v-.2h.3c.8 0 1.1-.3 1.1-1.3v-7c0-1-.3-1.3-1.1-1.3h-.3z"/><path d="m122.8 16.1v6.3c0 1 .3 1.3 1.1 1.3h.3v.3h-3.5v-.2h.3c.8 0 1.1-.3 1.1-1.3v-7.3c-.9-.9-1.1-1-2-1.1v-.2h3l6.1 7v-5.4c0-1-.3-1.3-1.1-1.3h-.3v-.2h3.5v.2h-.3c-.9 0-1.1.3-1.1 1.3v8.5h-.2z"/><path d="m135 22.2c0 1 .1 1.2.8 1.1h1.9a2.5 2.5 0 0 0 2.8-1.9h.3l-.9 2.5h-7.9v-.2h.4c.8 0 1-.3 1-1.3v-6.9c0-1-.2-1.3-1-1.3h-.4v-.2h7.7l.2 2.3h-.3c-.1-1.4-.6-1.8-2.2-1.7h-2.4v3.8h2.6c.8 0 1.2-.4 1.2-1.5h.2v3.7h-.2c0-1.1-.3-1.5-1.2-1.5h-2.6z"/><path d="m147.4 16v6.4c0 1 .2 1.3 1.1 1.3h.3v.3h-3.5v-.2h.3c.8 0 1.1-.3 1.1-1.3v-7c0-1-.3-1.3-1.1-1.3h-.3v-.2h2.9l3.4 7.5 3.3-7.5h3v.2h-.3c-.8 0-1.1.3-1.1 1.3v6.9c0 1 .3 1.3 1.1 1.3h.3v.3h-4.3v-.2h.3c.8 0 1-.3 1-1.3v-6.6l-3.6 8.1h-.2z"/><path d="m161.7 22.2c0 1 .1 1.2.8 1.1h1.8a2.6 2.6 0 0 0 2.9-1.9h.2l-.8 2.5h-7.9v-.2h.3c.8 0 1.1-.3 1.1-1.3v-6.9c0-1-.3-1.3-1.1-1.3h-.3v-.2h7.7l.2 2.3h-.3c-.2-1.4-.7-1.8-2.3-1.7h-2.3v3.8h2.5c.9 0 1.2-.4 1.2-1.5h.3v3.7h-.3c0-1.1-.3-1.5-1.2-1.5h-2.5z"/><path d="m168.1 13.9h4.4v.2h-.3c-.8 0-1.1.3-1.1 1.3v6.9c0 1 .3 1.3 1.1 1.3h.3v.4h-4.4v-.2h.4c.8 0 1-.3 1-1.3v-7c0-1-.2-1.3-1-1.3h-.4z"/><path d="m176.2 22.4c0 1 .3 1.3 1.1 1.3h.3v.3h-4.3v-.2h.3c.8 0 1-.3 1-1.3v-7c0-1-.2-1.3-1-1.3h-.3v-.2h4.2a4.7 4.7 0 0 1 2.4.4 2.6 2.6 0 0 1 1.2 2.2 2.5 2.5 0 0 1 -.9 1.9 3 3 0 0 1 -1.4.7l2.3 3.1c1 1.3 1.3 1.5 2 1.5h.2v.2h-2.7l-3.6-4.7h-.8zm0-3.7h.3c1.8 0 2.8-.8 2.8-2.1a1.9 1.9 0 0 0 -2.1-2.1l-1 .2z"/><path d="m186.9 22.2c0 1 .1 1.2.8 1.1h1.9a2.5 2.5 0 0 0 2.8-1.9h.3l-.9 2.5h-7.9v-.2h.4c.8 0 1-.3 1-1.3v-6.9c0-1-.2-1.3-1-1.3h-.4v-.2h7.7l.2 2.3h-.3c-.1-1.4-.6-1.8-2.2-1.7h-2.4v3.8h2.6c.8 0 1.2-.4 1.1-1.5h.3v3.7h-.3c.1-1.1-.2-1.5-1.1-1.5h-2.6z"/><path d="m193.4 24v-.2h.3c.8 0 1-.3 1-1.3v-7c0-1-.2-1.3-1-1.3h-.3v-.2h4.3v.2h-.3c-.8 0-1.1.3-1.1 1.3v6.6c0 1.1.1 1.2 1.3 1.2h1.3c1.4 0 2.2-.6 2.8-2.1h.3l-.9 2.7z"/><path d="m205.6 22.2c0 1 .1 1.2.9 1.1h1.8a2.5 2.5 0 0 0 2.8-1.9h.3l-.9 2.5h-7.9v-.2h.4c.8 0 1-.3 1-1.3v-6.9c0-1-.2-1.3-1-1.3h-.4v-.2h7.8v2.3h-.3c-.1-1.4-.6-1.8-2.2-1.7h-2.4v3.8h2.6c.9 0 1.2-.4 1.2-1.5h.2v3.7h-.2c0-1.1-.3-1.5-1.2-1.5h-2.6z"/><path d="m212.8 24v-3.4h.3a3.8 3.8 0 0 0 .5 1.7 2.7 2.7 0 0 0 2.1 1.2 1.7 1.7 0 0 0 1.8-1.7 1.7 1.7 0 0 0 -.6-1.2l-1-.8-1.2-.7c-1.4-.8-2-1.6-2-2.7a2.5 2.5 0 0 1 2.7-2.6 3.9 3.9 0 0 1 1.4.2l.8.2c.2 0 .3-.1.4-.3h.3v3.2h-.3a5.3 5.3 0 0 0 -.9-2.1 2 2 0 0 0 -1.5-.6 1.5 1.5 0 0 0 -1.6 1.4c0 .6.5 1.3 1.5 1.8l1.2.7c1.5.9 2.3 1.8 2.3 3a2.8 2.8 0 0 1 -3 2.8 4.7 4.7 0 0 1 -1.9-.4h-.6c-.2 0-.3.1-.4.4z"/><path d="m59.3 31.9h39.5v.69h-39.5z"/><path d="m179.9 31.9h39.1v.69h-39.1z"/><path d="m103.6 33.1-.8 2.2h-1.1l2.7-7.4h1.2l2.7 7.4h-1.2l-.7-2.2zm1.4-4-1.1 3.1h2.2z"/><path d="m111.3 30.8h-1v3.3c0 .3.1.5.4.5h.6v.8h-.9c-.8 0-1.1-.4-1.1-1.3v-3.3h-.7v-.8h.7v-1.7h1v1.7h1z"/><path d="m114.6 30.8h-1v3.3c0 .3.1.5.4.5h.6v.8h-.9c-.8 0-1.1-.4-1.1-1.3v-3.3h-.7v-.8h.7v-1.7h1v1.7h1z"/><path d="m120.3 32.7a2.5 2.5 0 0 1 -2.6 2.7 2.6 2.6 0 0 1 -2.6-2.8 2.6 2.6 0 0 1 2.6-2.8c1.6 0 2.6 1.1 2.6 2.9zm-4.1-.1c0 1.3.5 2 1.5 2s1.6-.7 1.6-1.9-.6-2-1.6-2-1.5.7-1.5 1.9z"/><path d="m122.5 30v.8l.4-.6a1.5 1.5 0 0 1 1-.4h.5v1h-.4a1.5 1.5 0 0 0 -1.5 1.7v2.8h-1v-5.3z"/><path d="m126.3 30v.6a2 2 0 0 1 1.7-.8 1.9 1.9 0 0 1 1.5.6 2.3 2.3 0 0 1 .3 1.3v3.6h-1v-3.5c0-.7-.3-1.1-1-1.1a1.3 1.3 0 0 0 -1.4 1.4v3.2h-1.1v-5.3z"/><path d="m132.1 32.9c0 1.1.6 1.7 1.5 1.7a1.3 1.3 0 0 0 1.3-.9h1a2.2 2.2 0 0 1 -2.3 1.7 2.6 2.6 0 0 1 -2.6-2.8 2.6 2.6 0 0 1 2.5-2.8 2.2 2.2 0 0 1 2.2 1.6 4.9 4.9 0 0 1 .3 1.5zm2.8-.8c-.1-.9-.5-1.5-1.4-1.5a1.4 1.4 0 0 0 -1.4 1.5z"/><path d="m141.5 30-2.4 5.9c-.3.8-.6 1.1-1.3 1.1a1.2 1.2 0 0 1 -.8-.2v-.8h.6a.7.7 0 0 0 .8-.5v-.4l-2.1-5.1h1.1l1.2 3 .4 1.1a9.7 9.7 0 0 0 .3-1.1l1.1-3z"/><path d="m145.6 31.7a2.2 2.2 0 0 1 .4-1.3 2.4 2.4 0 0 1 1.8-.6c1.3 0 2 .6 2 1.7v2.6c0 .4.1.5.3.5h.3v.8h-.7a.8.8 0 0 1 -.8-.7 2.4 2.4 0 0 1 -1.8.7 1.6 1.6 0 0 1 -1.8-1.5c0-.9.6-1.4 1.7-1.7l1.1-.2c.7-.1.8-.2.8-.5s-.4-.9-1.2-.9a1 1 0 0 0 -1 .5c-.1.1-.1.2-.1.6zm3.3.9-.6.2-1 .2c-.6.1-.9.4-.9.8s.4.8 1 .8a1.5 1.5 0 0 0 1.5-1.4z"/><path d="m153.5 30.8h-1v3.3a.5.5 0 0 0 .4.5h.6v.8h-.9c-.7 0-1.1-.4-1.1-1.3v-3.3h-.7v-.8h.7v-1.7h1v1.7h1z"/><path d="m158.9 34.4h3.8v.9h-4.9v-7.4h1.1z"/><path d="m164 31.7a2.2 2.2 0 0 1 .5-1.3 2.1 2.1 0 0 1 1.7-.6c1.3 0 2.1.6 2.1 1.7v2.6c0 .4 0 .5.3.5h.2v.8h-.6c-.5 0-.7-.2-.8-.7a2.8 2.8 0 0 1 -1.9.7 1.5 1.5 0 0 1 -1.7-1.5c0-.9.5-1.4 1.6-1.7l1.2-.2c.6-.1.7-.2.7-.5s-.4-.9-1.1-.9-1 .2-1.1.5-.1.2-.1.6zm3.4.9-.7.2-1 .2c-.6.1-.9.4-.9.8s.4.8 1 .8a1.5 1.5 0 0 0 1.6-1.4z"/><path d="m170.9 35.3-1.6-5.3h1.1l.7 2.7c.1.1.1.2.2.9s.1.2.2.6.1-.4.1-.6a1 1 0 0 1 .1-.4v-.5l.7-2.7h1l.7 2.7a8 8 0 0 1 .3 1.5l.4-1.5.7-2.7h1.1l-1.6 5.3h-1l-.6-2.5c-.2-.6-.3-1-.4-1.4l-.3 1.4-.7 2.5z"/></g></svg>